<?xml version="1.0" standalone="no"?><!DOCTYPE svg PUBLIC "-//W3C//DTD SVG 1.1//EN" "http://www.w3.org/Graphics/SVG/1.1/DTD/svg11.dtd"><svg t="1784819612402" class="icon" viewBox="0 0 1024 1024" version="1.1" xmlns="http://www.w3.org/2000/svg" p-id="4615" xmlns:xlink="http://www.w3.org/1999/xlink" width="200" height="200"><path d="M0 33.536C0 15.0016 15.5136 0 33.536 0H432.64c18.5344 0 33.536 15.5136 33.536 33.536V432.64a33.8944 33.8944 0 0 1-33.536 33.536H33.536A33.8944 33.8944 0 0 1 0 432.64V33.536zM0 591.36c0-18.5344 15.5136-33.536 33.536-33.536H432.64c18.5344 0 33.536 15.5136 33.536 33.536v399.104A33.8944 33.8944 0 0 1 432.64 1024H33.536A33.8944 33.8944 0 0 1 0 990.464V591.36zM557.824 33.536c0-18.5344 15.5136-33.536 33.536-33.536h399.104c18.5344 0 33.536 15.5136 33.536 33.536V432.64a33.8944 33.8944 0 0 1-33.536 33.536H591.36a33.8944 33.8944 0 0 1-33.536-33.536V33.536z m0 557.824c0-18.5344 15.5136-33.536 33.536-33.536h399.104c18.5344 0 33.536 15.5136 33.536 33.536v399.104a33.8944 33.8944 0 0 1-33.536 33.536H591.36a33.8944 33.8944 0 0 1-33.536-33.536V591.36z" fill="#666666" p-id="4616"></path></svg>